<svg width="270" height="40" viewBox="0 0 270 40" fill="none" xmlns="http://www.w3.org/2000/svg">
<path d="M34.4223 35.9992C34.7058 36.2826 34.849 36.6279 34.849 37.0349C34.849 37.4418 34.7058 37.7955 34.4223 38.0986C34.1219 38.3821 33.7653 38.5252 33.3583 38.5252C32.9512 38.5252 32.6059 38.3821 32.3223 38.0986L29.4784 35.2554C28.4846 35.8588 27.4037 36.1592 26.2359 36.1592H7.2465C5.52555 36.1592 4.05447 35.5473 2.83324 34.3236C1.60921 33.0998 1 31.6291 1 29.9114V8.53809C1 6.82037 1.61202 5.34683 2.83324 4.1259C4.05728 2.90217 5.52836 2.29311 7.2465 2.29311H26.2302C27.9484 2.29311 29.4223 2.90497 30.6435 4.1259C31.8675 5.34964 32.4767 6.82037 32.4767 8.53809V29.9114C32.4767 31.0818 32.1763 32.1624 31.5728 33.1559L34.4167 35.9992H34.4223ZM26.233 33.1812C26.5868 33.1812 26.9237 33.1279 27.2437 33.0212L22.8024 28.581C22.5188 28.2975 22.3785 27.9523 22.3785 27.5453C22.3785 27.1383 22.5188 26.7847 22.8024 26.4815C23.1028 26.1981 23.4593 26.0549 23.8664 26.0549C24.2735 26.0549 24.6188 26.1981 24.9023 26.4815L29.3437 30.9218C29.4503 30.6018 29.5037 30.265 29.5037 29.9114V8.53809C29.5037 7.63432 29.1836 6.86247 28.5464 6.22534C27.9091 5.58821 27.137 5.26824 26.233 5.26824H7.2465C6.34251 5.26824 5.57047 5.58821 4.93319 6.22534C4.29591 6.86247 3.97586 7.63432 3.97586 8.53809V29.9114C3.97586 30.8151 4.29591 31.587 4.93319 32.2241C5.57047 32.8612 6.34251 33.1812 7.2465 33.1812H26.2302H26.233Z" fill="#245C9E" stroke="#245C9E" stroke-width="1.842" stroke-miterlimit="10"/>
<path d="M45.3487 36.1592C43.6278 36.1592 42.1567 35.5473 40.9355 34.3236C39.7114 33.0998 39.1022 31.6291 39.1022 29.9114V8.53811C39.1022 6.82039 39.7143 5.35808 40.9355 4.15119C42.1595 2.92745 43.6306 2.31558 45.3487 2.31558H69.0939C69.5009 2.31558 69.8462 2.45873 70.1298 2.74221C70.4302 3.04253 70.5818 3.39898 70.5818 3.80596C70.5818 4.21293 70.4302 4.55816 70.1298 4.84164C69.8462 5.12512 69.5009 5.26827 69.0939 5.26827H45.3487C44.4447 5.26827 43.6727 5.59665 43.0354 6.25062C42.3981 6.88775 42.0781 7.65118 42.0781 8.53811V29.9114C42.0781 30.8152 42.3981 31.587 43.0354 32.2241C43.6727 32.8613 44.4447 33.1812 45.3487 33.1812H69.0939C69.5009 33.1812 69.8462 33.3328 70.1298 33.6331C70.4302 33.9166 70.5818 34.2618 70.5818 34.6688C70.5818 35.0758 70.4302 35.4322 70.1298 35.7326C69.8462 36.016 69.5009 36.1592 69.0939 36.1592H45.3487Z" fill="#245C9E" stroke="#245C9E" stroke-width="1.842" stroke-miterlimit="10"/>
<path d="M89.3269 35.3087L75.0736 4.42062C74.9136 4.04733 74.9052 3.66842 75.0484 3.27828C75.1887 2.90498 75.447 2.63273 75.8204 2.4531C76.1938 2.27628 76.5644 2.25944 76.9378 2.39977C77.328 2.54292 77.6115 2.79833 77.7884 3.17162L90.6857 31.1379L103.58 3.17162C103.757 2.79833 104.041 2.54292 104.431 2.39977C104.821 2.25944 105.203 2.27628 105.573 2.4531C105.947 2.62992 106.202 2.90498 106.345 3.27828C106.486 3.66842 106.469 4.05013 106.292 4.42062L92.0389 35.3087C91.7722 35.8757 91.3202 36.1592 90.6829 36.1592C90.0456 36.1592 89.5936 35.8757 89.3269 35.3087Z" fill="#245C9E" stroke="#245C9E" stroke-width="1.842" stroke-miterlimit="10"/>
<path d="M176.542 2.31839C176.949 2.31839 177.294 2.46153 177.578 2.74501C177.878 3.04533 178.03 3.40179 178.03 3.80876C178.03 4.21574 177.878 4.56097 177.578 4.84445C177.294 5.12793 176.949 5.27107 176.542 5.27107H164.363V34.6716C164.363 35.0786 164.22 35.435 163.937 35.7354C163.636 36.0188 163.28 36.162 162.873 36.162C162.466 36.162 162.12 36.0216 161.837 35.7354C161.536 35.435 161.385 35.0786 161.385 34.6716V5.26827H148.036C147.628 5.26827 147.272 5.12793 146.972 4.84164C146.688 4.55816 146.548 4.21293 146.548 3.80596C146.548 3.39898 146.688 3.04533 146.972 2.74221C147.272 2.45873 147.628 2.31558 148.036 2.31558H176.539L176.542 2.31839Z" fill="#245C9E" stroke="#245C9E" stroke-width="1.842" stroke-miterlimit="10"/>
<path d="M182.71 35.7326C182.426 35.4322 182.286 35.0758 182.286 34.6688V3.80596C182.286 3.39898 182.426 3.04533 182.71 2.74221C183.01 2.45873 183.367 2.31558 183.774 2.31558C184.181 2.31558 184.526 2.45873 184.81 2.74221C185.11 3.04253 185.262 3.39898 185.262 3.80596V34.6688C185.262 35.0758 185.11 35.4322 184.81 35.7326C184.526 36.016 184.181 36.1592 183.774 36.1592C183.367 36.1592 183.01 36.0188 182.71 35.7326Z" fill="#245C9E" stroke="#245C9E" stroke-width="1.842" stroke-miterlimit="10"/>
<path d="M214.748 2.31839C216.466 2.31839 217.94 2.93026 219.161 4.15399C220.385 5.35808 220.995 6.82039 220.995 8.54092V29.9142C220.995 31.6347 220.383 33.1055 219.161 34.3264C217.937 35.5501 216.466 36.162 214.748 36.162H195.764C194.043 36.162 192.572 35.5501 191.351 34.3264C190.127 33.1026 189.518 31.6319 189.518 29.9142V8.53811C189.518 6.82039 190.13 5.35808 191.351 4.15119C192.575 2.92745 194.046 2.31558 195.764 2.31558H214.748V2.31839ZM218.019 8.53811C218.019 7.65118 217.699 6.89056 217.062 6.25062C216.424 5.59385 215.652 5.26827 214.748 5.26827H195.764C194.86 5.26827 194.088 5.59665 193.451 6.25062C192.814 6.88775 192.494 7.65118 192.494 8.53811V29.9114C192.494 30.8152 192.814 31.587 193.451 32.2241C194.088 32.8613 194.86 33.1812 195.764 33.1812H214.748C215.652 33.1812 216.424 32.8613 217.062 32.2241C217.699 31.587 218.019 30.8152 218.019 29.9114V8.53811Z" fill="#245C9E" stroke="#245C9E" stroke-width="1.842" stroke-miterlimit="10"/>
<path d="M205.256 15.4371C205.837 15.4371 206.329 15.6391 206.73 16.0433C207.16 16.4727 207.373 16.9751 207.373 17.5561V20.9214C207.373 21.5024 207.16 22.0048 206.73 22.4342C206.326 22.8384 205.835 23.0405 205.256 23.0405C204.678 23.0405 204.173 22.8384 203.743 22.4342C203.339 22.0048 203.14 21.5024 203.14 20.9214V17.5561C203.14 16.978 203.342 16.4727 203.743 16.0433C204.173 15.6391 204.675 15.4371 205.256 15.4371Z" fill="#EF7B21"/>
<path d="M205.256 15.4371C204.675 15.4371 204.173 15.6391 203.743 16.0433C203.339 16.4727 203.14 16.9751 203.14 17.5561V20.9214C203.14 21.5024 203.342 22.0048 203.743 22.4342C204.173 22.8384 204.675 23.0405 205.256 23.0405C205.837 23.0405 206.329 22.8384 206.73 22.4342C207.16 22.0048 207.373 21.5024 207.373 20.9214V17.5561C207.373 16.978 207.16 16.4727 206.73 16.0433C206.326 15.6391 205.835 15.4371 205.256 15.4371Z" fill="#EF7B21"/>
<path d="M245.894 22.075C246.177 22.3753 246.309 22.7318 246.292 23.1387C246.256 23.5457 246.087 23.8909 245.787 24.1744C245.487 24.4411 245.13 24.5646 244.723 24.5477C244.316 24.5309 243.971 24.3709 243.687 24.0706L228.229 7.66522V34.6744C228.229 35.0814 228.078 35.4378 227.777 35.7382C227.494 36.0216 227.149 36.1648 226.741 36.1648C226.334 36.1648 225.978 36.0245 225.677 35.7382C225.394 35.4378 225.254 35.0814 225.254 34.6744V3.80596C225.254 3.1155 225.574 2.6552 226.211 2.42504C226.848 2.17805 227.39 2.30155 227.834 2.79834L245.896 22.075H245.894ZM255.245 2.31839C255.652 2.31839 255.998 2.46153 256.281 2.74501C256.581 3.04533 256.733 3.40179 256.733 3.80876V34.6716C256.733 35.3621 256.413 35.8252 255.776 36.0553C255.599 36.1255 255.422 36.162 255.245 36.162C254.802 36.162 254.431 36.002 254.128 35.6848L243.44 23.8011C243.173 23.5008 243.05 23.1359 243.067 22.7121C243.083 22.3051 243.252 21.9683 243.572 21.7017C243.872 21.4182 244.229 21.2947 244.636 21.3284C245.043 21.3452 245.38 21.5052 245.647 21.8055L253.757 30.818V3.80596C253.757 3.39898 253.909 3.04533 254.209 2.7422C254.493 2.45872 254.838 2.31558 255.245 2.31558V2.31839Z" fill="#245C9E" stroke="#245C9E" stroke-width="1.842" stroke-miterlimit="10"/>
<path d="M127.92 3.15479L142.174 34.0429C142.334 34.4162 142.342 34.7951 142.199 35.1852C142.059 35.5585 141.8 35.8308 141.427 36.0104C141.053 36.1872 140.683 36.2041 140.31 36.0637C139.919 35.9206 139.636 35.6652 139.459 35.2919L126.562 7.3256L113.667 35.2919C113.49 35.6652 113.207 35.9206 112.817 36.0637C112.426 36.2041 112.044 36.1872 111.674 36.0104C111.301 35.8336 111.045 35.5585 110.902 35.1852C110.761 34.7951 110.778 34.4134 110.955 34.0429L125.208 3.15479C125.475 2.58783 125.927 2.30435 126.564 2.30435C127.202 2.30435 127.654 2.58783 127.92 3.15479Z" fill="#245C9E" stroke="#245C9E" stroke-width="1.842" stroke-miterlimit="10"/>
<path d="M129.226 22.6195C129.226 23.0264 129.083 23.3717 128.799 23.6551C128.499 23.9555 128.142 24.107 127.735 24.107H125.368C124.961 24.107 124.605 23.9555 124.304 23.6551C124.021 23.3717 123.878 23.0264 123.878 22.6195C123.878 22.2125 124.018 21.856 124.304 21.5557C124.605 21.2722 124.961 21.1319 125.368 21.1319H127.735C128.142 21.1319 128.496 21.2722 128.799 21.5557C129.083 21.856 129.226 22.2125 129.226 22.6195Z" fill="#245C9E" stroke="#245C9E" stroke-width="1.842" stroke-miterlimit="10"/>
<path d="M269.453 4.97073C269.453 7.78869 267.241 10.0032 264.361 10.0032C261.48 10.0032 259.237 7.79149 259.237 4.97073C259.237 2.14996 261.511 0 264.361 0C267.21 0 269.453 2.21171 269.453 4.97073ZM260.509 4.97073C260.509 7.18243 262.146 8.94225 264.389 8.94225C266.632 8.94225 268.179 7.18524 268.179 5.0016C268.179 2.81796 266.573 1.002 264.358 1.002C262.143 1.002 260.509 2.78989 260.509 4.97353V4.97073ZM263.572 7.57818H262.421V2.60746C262.876 2.51764 263.513 2.45589 264.33 2.45589C265.27 2.45589 265.694 2.60746 266.059 2.82077C266.332 3.03408 266.545 3.42702 266.545 3.91259C266.545 4.45709 266.121 4.88372 265.515 5.06335V5.1251C266 5.30753 266.273 5.6696 266.424 6.3376C266.576 7.09542 266.666 7.39855 266.789 7.58099H265.545C265.394 7.39855 265.304 6.94386 265.152 6.36848C265.063 5.82397 264.759 5.57979 264.122 5.57979H263.578V7.58099L263.572 7.57818ZM263.603 4.75741H264.147C264.785 4.75741 265.298 4.5441 265.298 4.03047C265.298 3.57578 264.964 3.27265 264.237 3.27265C263.934 3.27265 263.721 3.30353 263.6 3.3344V4.76022L263.603 4.75741Z" fill="#245C9E"/>
</svg>
