<svg width="296" height="74" viewBox="0 0 296 74" fill="none" xmlns="http://www.w3.org/2000/svg">
<path fill-rule="evenodd" clip-rule="evenodd" d="M52.7861 0.0725032C54.0636 0.519173 55.0165 0.526158 58.1754 0.526158C61.3342 0.526158 68.9329 0.257452 72.9819 0.257452C76.5177 0.250473 79.5544 0.976316 81.4288 4.21118C83.3939 7.58912 83.1984 12.2652 79.3973 17.1402C75.4147 22.2489 71.1284 25.5606 61.2051 27.3647C59.9311 27.5985 58.1195 28.1917 57.219 30.6728C56.0078 34.0054 54.1369 39.6167 54.1369 39.6167C54.1369 39.6167 53.5331 40.8974 52.0322 40.8974H48.1229C48.1229 40.8974 46.5452 40.8206 47.2956 38.7129C48.0461 36.6122 55.1142 15.7792 57.746 8.22771C57.8996 7.78453 58.0741 7.40067 59.048 7.40067C60.0218 7.40067 62.13 7.29599 63.5542 7.29599C64.2208 7.29599 64.4337 7.63797 64.2313 8.29053C63.9556 9.20131 61.6763 16.3375 60.9049 19.0245C60.4581 20.6018 60.8281 22.0326 63.6833 21.5022C66.9853 20.8915 71.8056 19.1711 74.7376 14.0623C77.6695 8.95006 76.2419 6.01181 72.7061 5.94202C69.0062 5.87223 62.5454 6.05369 58.664 6.14791C57.5401 6.17233 56.1684 5.56863 54.4371 4.21466C52.7093 2.8607 51.6657 1.25548 51.8053 0.456362C51.8821 0.0271405 52.2835 -0.098484 52.7861 0.0759962" fill="#25599F"/>
<path fill-rule="evenodd" clip-rule="evenodd" d="M123.307 18.5918C127.108 17.9253 128.051 15.5419 130.487 14.4322C133.384 13.1166 138.756 12.5897 141.803 14.5439C143.964 15.9327 145.185 17.8171 143.835 21.7255C142.48 25.6338 140.194 32.285 139.021 35.6699C138.683 36.6435 139.021 37.174 140.225 37.174C141.43 37.174 141.88 36.6819 142.25 35.5548C143.859 30.7356 147.161 20.9648 148.871 16.3375C149.297 15.1825 149.671 14.8056 150.676 14.5823C152.027 14.2822 154.641 13.7029 155.674 13.4377C156.651 13.1864 156.802 13.5912 156.575 14.0588C156.48 14.2647 156.519 14.6241 157.042 14.4148C157.569 14.2054 159.451 13.4551 161.556 13.2876C163.042 13.1655 165.709 13.4202 166.767 15.336C168.774 14.0972 171.297 12.67 175.374 12.9072C180.149 13.1934 180.976 17.4019 180.296 19.2828C180.285 19.3072 175.235 34.2776 173.545 39.2468C173.444 39.5399 173.207 39.9098 172.617 39.9098C171.256 39.9098 168.292 39.9168 167.266 39.8924C166.791 39.8749 166.508 39.6481 166.714 39.0374C167.688 36.1829 173.217 20.4483 173.434 19.7434C174.083 17.6392 173.563 16.7912 171.43 16.683C169.995 16.6132 168.554 16.9622 167.821 18.9896C166.219 23.4005 161.51 36.8529 160.718 39.1212C160.498 39.7493 160.257 39.9971 159.475 39.9866C157.423 39.9587 155.531 39.9447 154.704 39.9447C154.142 39.9447 153.894 39.5469 154.079 39.02C154.498 37.8475 160.006 22.1442 160.756 19.6352C161.29 17.8625 161.158 16.8331 158.651 16.8331C156.631 16.8331 155.468 17.8381 154.439 20.5914C153.416 23.3447 148.962 35.7328 147.444 39.2712C147.105 40.0599 146.801 40.3635 145.569 40.3635H133.011C132.107 40.3635 131.995 39.7981 131.995 39.3096C131.995 38.8211 132.033 38.1476 131.244 38.7443C130.456 39.348 127.52 40.8136 124.592 40.6287C121.66 40.4367 118.009 38.9327 117.97 35.2896C117.935 31.6429 120.602 28.6 125.115 26.7575C128.728 25.2814 135.304 25.1034 136.393 23.2609C137.482 21.4219 138.421 18.7523 136.431 17.2483C134.438 15.7443 131.018 17.3216 129.475 18.3371C127.932 19.3525 126.515 19.9702 124.965 19.9702C123.415 19.9702 122.634 19.6387 122.557 19.1885C122.494 18.8117 122.864 18.6651 123.311 18.5883M132.983 28.0661C131.677 28.4151 128.871 28.9141 127.265 29.9679C125.091 31.3987 123.897 34.3893 125.112 36.1306C126.264 37.7846 128.019 37.8858 129.674 37.0344C131.604 36.0398 132.728 34.4765 133.534 32.3758C134.033 31.0567 135.283 27.0122 135.283 27.0122C135.283 27.0122 134.285 27.7136 132.983 28.0696" fill="#25599F"/>
<path fill-rule="evenodd" clip-rule="evenodd" d="M237.62 15.1092C237.836 14.5264 238.045 14.003 239.026 13.832C240.112 13.6331 243.323 13.0712 244.611 12.7223C245.026 12.6071 245.12 12.8409 244.967 13.1794C244.59 13.9995 244.419 14.4147 244.946 14.2054C246.611 13.5563 249.428 12.4012 252.744 12.9072C257.47 13.6331 258.339 17.3984 257.669 19.2827C257.655 19.3107 252.604 34.2776 250.911 39.2468C250.813 39.5399 250.573 39.9098 249.986 39.9098C248.625 39.9098 245.703 39.8749 244.639 39.8923C244.161 39.8923 243.878 39.6481 244.084 39.0374C245.054 36.1829 250.573 20.4448 250.803 19.7434C251.623 17.2134 250.143 15.828 248.014 15.9711C245.721 16.1177 243.878 16.6446 242.712 19.691C241.033 24.0705 236.586 36.8529 235.794 39.1211C235.578 39.7493 235.337 39.997 234.555 39.9866C232.502 39.9586 221.211 39.9447 220.384 39.9447C219.822 39.9447 219.511 39.5155 219.633 38.9641C219.689 38.7024 219.857 37.9242 219.857 37.9242C219.857 37.9242 219.905 37.2263 219.005 37.8788C218.101 38.5314 214.09 40.2867 210.635 39.683C207.172 39.0793 204.764 36.5737 205.972 32.7631C207.172 28.9559 212.087 14.7218 212.087 14.7218C212.087 14.7218 212.488 13.8215 213.232 13.6191C213.989 13.4167 218.551 12.3663 218.551 12.3663C218.551 12.3663 219.905 11.8638 219.253 13.5179C218.6 15.172 214.192 27.8148 212.537 32.7142C211.884 34.644 212.261 36.8006 214.966 36.6016C217.675 36.3992 219.455 35.9735 220.809 32.5153C222.16 29.0571 225.382 19.2339 226.925 14.6241C227.033 14.2961 227.288 13.7831 228.091 13.6296C228.89 13.483 231.989 12.7223 233.34 12.4152C233.7 12.3349 234.743 12.1151 234.244 13.5703C233.742 15.0254 226.471 35.2686 226.471 35.2686C226.471 35.2686 226.265 36.1899 227.022 36.2248C227.937 36.2631 228.67 36.2632 229.218 36.2632C229.63 36.2632 230.181 36.1236 230.583 35.0697C230.984 34.0193 235.784 20.0644 237.626 15.0987" fill="#25599F"/>
<path fill-rule="evenodd" clip-rule="evenodd" d="M81.8057 18.5918C85.6033 17.9253 86.5457 15.5419 88.9856 14.4322C91.8791 13.1166 97.2544 12.5897 100.302 14.5438C102.462 15.9327 103.684 17.8171 102.33 21.7255C100.979 25.6338 98.6855 32.285 97.5197 35.6699C97.1811 36.6435 97.5197 37.1739 98.7204 37.1739C99.9212 37.1739 100.378 36.6819 100.752 35.5548C102.357 30.7356 105.656 20.9647 107.37 16.3375C107.796 15.1824 108.169 14.8056 109.174 14.5822C110.529 14.2821 112.773 13.8703 113.81 13.6051C114.787 13.3574 115.014 13.5807 114.742 14.4357C114.305 15.7757 114.288 16.2642 114.787 15.8385C115.29 15.4093 117.154 13.9401 119.45 13.4586C122.431 12.8305 123.915 14.31 125.038 14.3973C126.449 14.5055 127.848 14.0344 127.974 14.3589C128.159 14.8579 125.792 16.9133 123.862 17.4158C122.658 17.7264 120.675 17.8904 119.548 17.8625C118.421 17.8415 116.389 17.9392 114.86 19.2688C113.335 20.5983 112.18 22.029 111.153 24.7823C110.124 27.5356 107.454 35.7362 105.942 39.2747C105.604 40.0633 105.3 40.3669 104.061 40.3669H91.5057C90.6051 40.3669 90.4899 39.8016 90.4899 39.3131C90.4899 38.8245 90.5249 38.151 89.736 38.7477C88.9507 39.3514 86.0152 40.8171 83.0797 40.6321C80.1477 40.4402 76.5037 38.9362 76.4653 35.293C76.4269 31.6464 79.0971 28.6035 83.6068 26.761C87.2159 25.2849 93.7954 25.1069 94.8844 23.2644C95.9735 21.4254 96.9124 18.7558 94.9228 17.2518C92.9263 15.7478 89.5056 17.3251 87.9664 18.3405C86.4271 19.356 85.003 19.9737 83.4567 19.9737C81.9104 19.9737 81.1251 19.6422 81.0518 19.192C80.9889 18.8151 81.3589 18.6686 81.8022 18.5918M91.4777 28.0661C90.1723 28.415 87.3695 28.914 85.7639 29.9679C83.5858 31.3986 82.3921 34.3892 83.6068 36.1305C84.7586 37.7846 86.5143 37.8858 88.1688 37.0343C90.099 36.0398 91.2229 34.4765 92.0258 32.3757C92.5319 31.0567 93.778 27.0122 93.778 27.0122C93.778 27.0122 92.7762 27.7136 91.4743 28.0696" fill="#25599F"/>
<path fill-rule="evenodd" clip-rule="evenodd" d="M198.272 12.6281C201.577 12.328 206.767 12.8549 207.068 18.6407C207.368 24.43 203.608 31.8 200.53 35.3315C197.444 38.863 190.83 40.1436 186.017 39.9971C181.203 39.8435 179.102 35.5618 180.376 29.4689C181.654 23.3796 183.315 20.5041 185.416 18.044C189.036 13.7971 194.966 12.9317 198.272 12.6316M192.408 17.6636C185.72 25.9479 185.42 35.4292 188.345 36.6854C191.511 38.0394 194.139 36.0085 196.617 31.8733C199.741 26.6668 200.903 20.902 200.003 18.194C199.099 15.4896 195.57 13.7587 192.408 17.6671" fill="#25599F"/>
<path fill-rule="evenodd" clip-rule="evenodd" d="M269.533 17.2274C268.123 21.3067 265.644 28.5651 264.213 32.8713C263.937 33.7053 263.623 35.5618 265.016 36.2806C266.262 36.9262 267.962 36.2073 268.88 35.8374C269.107 35.7397 269.784 35.4222 269.875 35.9491C270.014 36.7378 270.039 36.9297 270.081 37.2263C270.157 37.7707 270.116 38.0184 269.344 38.336C268.328 38.7582 264.821 40.2937 261.718 39.3131C258.615 38.336 257.693 36.3434 257.463 35.2512C257.239 34.1659 257.463 32.4176 258.238 30.4983C258.814 29.0676 261.847 20.4064 263.047 17.0424C263.089 16.9308 263.198 16.683 262.73 16.683C262.262 16.683 261.718 16.7039 261.375 16.683C261.194 16.6725 260.772 16.6097 260.964 16.0828C261.149 15.5593 261.334 14.9591 261.487 14.5997C261.588 14.3624 261.752 14.0937 262.388 14.0937C263.023 14.0937 265.211 13.8215 266.451 13.2283C267.784 12.5897 269.704 10.8798 270.412 9.67588C270.412 9.67588 270.918 8.79999 271.093 8.51035C271.184 8.35332 271.376 8.06368 271.77 8.23118C272.161 8.39868 272.894 8.43706 272.486 9.58165C272.074 10.7262 271.299 12.6246 270.904 13.6575C270.866 13.7657 270.852 13.996 271.208 13.996H274.196C274.611 13.996 274.74 14.0728 274.535 14.673C274.238 15.5419 273.952 16.1945 273.952 16.1945C273.952 16.1945 273.784 16.5713 273.299 16.5713C272.674 16.5713 271.246 16.5644 270.381 16.5644C270.021 16.5644 269.686 16.7982 269.536 17.2274" fill="#25599F"/>
<path d="M270.702 43.888H46.4649C46.0635 43.888 45.7354 43.5634 45.7354 43.1586C45.7354 42.7539 46.06 42.4293 46.4649 42.4293H270.698C271.1 42.4293 271.428 42.7539 271.428 43.1586C271.428 43.5634 271.103 43.888 270.698 43.888H270.702Z" fill="#25599F"/>
<path fill-rule="evenodd" clip-rule="evenodd" d="M10.8274 12.9282C10.8274 12.9282 35.3373 1.05304 39.6969 10.3738C43.7249 18.9861 12.632 54.7232 12.632 54.7232C12.632 54.7232 53.9833 15.336 47.519 3.15378C42.1228 -7.00795 10.8309 12.9282 10.8309 12.9282" fill="#E26439"/>
<path fill-rule="evenodd" clip-rule="evenodd" d="M5.117 19.7643C5.117 19.7643 26.1749 9.87131 29.9236 17.6357C33.3827 24.8068 6.66677 54.5731 6.66677 54.5731C6.66677 54.5731 42.1996 21.7709 36.6393 11.6266C32.004 3.1608 5.117 19.7678 5.117 19.7678" fill="#25599F"/>
<path fill-rule="evenodd" clip-rule="evenodd" d="M0 25.9584C0 25.9584 17.3126 17.8241 20.3947 24.2066C23.2429 30.104 1.27402 54.5696 1.27402 54.5696C1.27402 54.5696 30.4821 27.602 25.9201 19.2653C22.1085 12.307 0 25.9584 0 25.9584Z" fill="#575F62"/>
<path d="M52.5418 46.5087C52.5069 46.2714 52.3114 46.0585 51.9589 45.8805C51.547 45.6746 50.9746 45.5699 50.259 45.5699C49.5923 45.5699 48.985 45.6712 48.4579 45.8701C47.9239 46.0655 47.512 46.3272 47.1874 46.6692C46.8593 47.0112 46.5591 47.573 46.2869 48.3372C46.1019 48.8502 46.0251 49.2794 46.0495 49.597C46.0705 49.8831 46.1438 50.1099 46.2659 50.267C46.4125 50.4414 46.7546 50.752 47.3305 51.2057C48.1403 51.8373 48.3602 52.1025 48.4545 52.2595C48.6325 52.5666 48.5871 53.0342 48.3253 53.781C48.2101 54.1125 48.0531 54.3742 47.8681 54.5557C47.6482 54.7651 47.3968 54.8663 47.1141 54.8663C46.6429 54.8663 46.4928 54.615 46.4405 54.4649C46.3741 54.2625 46.423 53.9869 46.5975 53.4774L46.9012 52.6294H44.8558L44.6917 53.104C44.4195 53.8647 44.2938 54.4405 44.3113 54.8244C44.3252 55.1419 44.5068 55.4037 44.8698 55.6235C45.2781 55.8713 45.8576 55.9969 46.5836 55.9969C47.2712 55.9969 47.896 55.8852 48.4963 55.6514C49.0758 55.4316 49.5086 55.1559 49.7913 54.8349C50.0845 54.5068 50.3567 53.9799 50.6081 53.268C51.0374 52.0746 51.0095 51.4988 50.9048 51.2301C50.8035 50.9544 50.4161 50.4449 49.17 49.59C48.7127 49.2794 48.4754 49.0037 48.423 48.728C48.3742 48.4803 48.4196 48.1697 48.5661 47.7475C48.6813 47.4229 48.8314 47.1717 49.0129 46.9937C49.2154 46.7983 49.4562 46.6971 49.725 46.6971C50.1438 46.6971 50.2904 46.9309 50.3393 47.067C50.3882 47.2101 50.4056 47.4194 50.1962 48.0022L50.0775 48.3407H52.1194L52.1892 48.1418C52.5418 47.1577 52.5802 46.711 52.5488 46.5087" fill="#25599F"/>
<path d="M70.2034 45.7968L66.6571 55.77H68.9155L72.4618 45.7968H70.2034Z" fill="#25599F"/>
<path d="M93.8094 45.7968L91.5161 52.256L91.5685 45.7968H89.6592L86.1129 55.77H87.8791L90.2596 49.0805L90.0152 55.77H92.0362L95.579 45.7968H93.8094Z" fill="#25599F"/>
<path d="M120.916 46.889C120.909 46.5296 120.724 46.233 120.361 45.9852C119.963 45.7061 119.356 45.5665 118.553 45.5665C117.942 45.5665 117.37 45.6607 116.846 45.8526C116.305 46.048 115.862 46.3028 115.489 46.6273C115.119 46.9518 114.846 47.2868 114.672 47.6323C114.487 47.9987 114.26 48.564 113.988 49.3213L112.885 52.434C112.525 53.4425 112.344 54.1928 112.344 54.6639C112.344 55.0687 112.511 55.3688 112.878 55.5991C113.283 55.8573 113.89 55.9899 114.693 55.9899C115.496 55.9899 116.197 55.8259 116.843 55.5049C117.489 55.1768 117.963 54.8069 118.257 54.3987C118.564 53.9694 118.909 53.2227 119.286 52.1723H117.028L116.633 53.2855C116.417 53.8997 116.232 54.294 116.082 54.4929C115.893 54.7337 115.621 54.8593 115.297 54.8593C114.808 54.8593 114.612 54.5731 114.595 54.3079C114.588 54.1614 114.612 53.9031 114.878 53.1564L116.637 48.2116C116.853 47.6114 117.014 47.2554 117.164 47.0705C117.29 46.8995 117.541 46.6936 117.984 46.6936C118.564 46.6936 118.654 47.074 118.668 47.1891C118.686 47.3392 118.661 47.5869 118.389 48.3477L117.89 49.7505H120.148L120.424 48.9619C120.843 47.7824 120.927 47.1822 120.916 46.8855" fill="#25599F"/>
<path d="M138.627 45.7968L135.077 55.77H139.513L140.033 54.3149H137.848L138.923 51.2964H140.78L141.259 49.9459H139.402L140.365 47.2484H142.348L142.864 45.7968H138.627Z" fill="#25599F"/>
<path d="M190.474 45.7968C189.469 46.6063 188.254 47.1682 186.858 47.4578L186.641 48.0685C187.427 48.0824 187.685 48.1592 187.828 48.2325C188.114 48.3826 188.254 48.6443 188.223 48.9514C188.209 49.084 188.142 49.3771 187.744 50.5112L185.87 55.7735H188.01L191.553 45.8002H190.474V45.7968Z" fill="#25599F"/>
<path d="M214.436 53.8194C214.572 53.5088 214.848 52.8248 215.385 51.3034L215.909 49.8203C216.342 48.6094 216.586 47.8661 216.68 47.4892C216.764 47.1438 216.757 46.8262 216.642 46.5156C216.534 46.2295 216.317 46.0131 215.979 45.8561C215.609 45.6816 215.061 45.5909 214.356 45.5909C213.776 45.5909 213.232 45.6711 212.743 45.8282C212.251 45.9922 211.843 46.2085 211.504 46.4877C211.165 46.7634 210.911 47.067 210.736 47.395C210.555 47.737 210.328 48.2849 210.069 49.0142L209.769 49.8622C209.556 50.4589 209.441 50.93 209.417 51.2615C209.403 51.5267 209.497 51.7396 209.724 51.935C209.968 52.1444 210.31 52.2491 210.747 52.2491C211.117 52.2491 211.452 52.1862 211.741 52.0606C212.024 51.942 212.268 51.757 212.485 51.5127L212.715 51.2475C212.411 51.3278 212.073 51.2545 211.86 50.9963C211.682 50.7834 211.696 50.4449 211.909 49.8412L212.617 47.8452C212.83 47.2589 213.029 46.9309 213.274 46.7739C213.958 46.3412 214.474 46.575 214.583 47.0251C214.638 47.2484 214.576 47.58 214.373 48.1418L213.696 50.068C213.682 50.1029 213.672 50.1344 213.658 50.1658L213.665 50.1588L212.457 53.5402C212.307 53.945 212.202 54.2172 212.15 54.3568C212.066 54.5452 211.933 54.7022 211.759 54.8244C211.57 54.9535 211.368 55.0128 211.158 55.0128C210.816 55.0128 210.628 54.8767 210.53 54.7651C210.429 54.6325 210.335 54.43 210.404 54.1404C210.425 54.0532 210.474 53.8857 210.569 53.617H208.439C208.279 54.1334 208.223 54.5592 208.275 54.8942C208.324 55.2222 208.513 55.4769 208.844 55.6689C209.218 55.8782 209.783 55.9829 210.523 55.9829C211.134 55.9829 211.71 55.8922 212.23 55.7177C212.747 55.5432 213.204 55.2745 213.595 54.9291C213.982 54.5766 214.265 54.2067 214.432 53.8298" fill="#25599F"/>
<path d="M244.387 45.9015C244.017 45.6921 243.452 45.5874 242.712 45.5874C242.101 45.5874 241.525 45.6746 241.005 45.8526C240.485 46.0271 240.028 46.2958 239.637 46.6413C239.246 46.9972 238.97 47.3566 238.799 47.744C238.614 48.1488 238.311 48.9479 237.843 50.26L237.319 51.7326C236.81 53.1633 236.614 53.7949 236.548 54.0741C236.468 54.4231 236.482 54.7406 236.593 55.0407C236.695 55.3269 236.904 55.5467 237.246 55.7107C237.619 55.8782 238.171 55.9725 238.88 55.9725C239.459 55.9725 240 55.8922 240.489 55.7317C240.967 55.5747 241.382 55.3548 241.728 55.0721C242.066 54.7895 242.325 54.4894 242.492 54.1648C242.674 53.8194 242.897 53.268 243.155 52.5422L243.459 51.6977C243.668 51.0975 243.791 50.6299 243.812 50.2949C243.826 50.0332 243.724 49.8203 243.497 49.6249C243.257 49.419 242.925 49.3143 242.482 49.3143C242.112 49.3143 241.777 49.3771 241.487 49.4992C241.197 49.6249 240.953 49.8028 240.74 50.0471L240.513 50.3088C240.6 50.2914 240.688 50.2809 240.775 50.2809C241.274 50.2809 241.424 50.595 241.466 50.7346C241.525 50.9544 241.483 51.2475 241.316 51.7186L240.604 53.7147C240.401 54.287 240.195 54.6255 239.955 54.786C239.717 54.9395 239.518 55.0093 239.33 55.0093C238.82 55.0093 238.681 54.6743 238.646 54.5312C238.607 54.3812 238.6 54.1195 238.855 53.4181L239.536 51.4918C239.546 51.4674 239.557 51.443 239.567 51.4185H239.564L240.775 48.0196C240.918 47.6044 241.026 47.3322 241.092 47.1996C241.18 47.0042 241.312 46.8506 241.49 46.7355C241.668 46.6133 241.871 46.554 242.077 46.554C242.429 46.554 242.614 46.6936 242.709 46.8157C242.845 46.9832 242.883 47.1891 242.82 47.4299C242.796 47.5241 242.74 47.6951 242.653 47.9464H244.789C244.946 47.4404 245.002 47.0146 244.953 46.6796C244.904 46.3446 244.726 46.0934 244.384 45.9015" fill="#25599F"/>
<path d="M265.585 53.8926L265.99 52.7515H265.177L267.651 45.7968H265.515L263.04 52.7515H260.929L265.337 45.7968H264.531L259.714 52.5736L259.246 53.8926H262.636L261.969 55.77H264.105L264.772 53.8926H265.585Z" fill="#25599F"/>
<path d="M290.528 2.40009C292.423 2.40009 293.756 3.0317 294.524 4.29145C295.285 5.55119 295.359 7.03777 294.737 8.75465C294.102 10.5029 292.936 11.993 291.236 13.2388C289.54 14.4846 287.816 15.1057 286.067 15.1057C284.318 15.1057 283.037 14.4846 282.252 13.2458C281.463 12 281.39 10.5064 282.025 8.75465C282.475 7.51933 283.215 6.3887 284.245 5.35578C285.278 4.32635 286.367 3.57608 287.526 3.10498C288.678 2.63389 289.683 2.40009 290.528 2.40009ZM290.392 3.63541C288.835 3.63541 287.383 4.15536 286.039 5.1813C284.695 6.20724 283.781 7.40069 283.285 8.75815C282.775 10.161 282.835 11.3649 283.474 12.3629C284.109 13.3644 285.132 13.8669 286.538 13.8669C287.945 13.8669 289.32 13.3644 290.685 12.3629C292.05 11.3649 292.985 10.161 293.498 8.75815C293.851 7.78804 293.924 6.89818 293.718 6.08161C293.512 5.26505 293.09 4.65437 292.448 4.24957C291.805 3.84478 291.121 3.63889 290.395 3.63889M284.353 12.1465L286.807 5.40115H290.001C290.793 5.40115 291.299 5.58609 291.523 5.9525C291.749 6.31891 291.767 6.77256 291.568 7.30996C291.379 7.82991 291.076 8.24517 290.66 8.56273C290.242 8.87679 289.714 9.09314 289.062 9.20132C289.299 9.30601 289.467 9.44909 289.568 9.63055C289.666 9.81201 289.781 10.1993 289.917 10.7926L290.21 12.1465H288.531L288.36 11.0613C288.259 10.4122 288.123 9.97601 287.948 9.73523C287.777 9.50143 287.488 9.38279 287.069 9.38279H286.713L285.707 12.1465H284.35H284.353ZM287.107 8.31496H288.221C288.779 8.31496 289.205 8.24168 289.491 8.09163C289.781 7.94507 289.987 7.70778 290.105 7.37627C290.217 7.07616 290.179 6.85282 290.004 6.70626C289.83 6.5562 289.502 6.48292 289.034 6.48292H287.781L287.114 8.31496H287.107Z" fill="#25599F"/>
<path d="M42.7475 73.4589H41.5224L42.943 69.4249L41.2152 64.8256H42.7022L43.9762 68.2524L47.6447 64.8256H49.17L44.1717 69.4249L42.7475 73.4589Z" fill="#E26439"/>
<path d="M51.9484 64.8256H55.6483C56.8874 64.8256 57.2888 65.4363 56.8595 66.6542L55.1177 71.5955C54.6779 72.8308 53.8402 73.4519 52.6081 73.4519H48.9082C47.6761 73.4519 47.2747 72.8378 47.711 71.6024L49.4492 66.6716C49.8855 65.4398 50.7198 64.8221 51.9519 64.8221M50.5871 66.9368L49.0129 71.3965C48.821 71.9444 48.9955 72.2201 49.54 72.2201H52.8454C53.3865 72.2201 53.7495 71.9514 53.9414 71.4105L55.5366 66.8845C55.732 66.3331 55.554 66.0575 54.9991 66.0575H51.7215C51.17 66.0575 50.7896 66.3506 50.5836 66.9368" fill="#E26439"/>
<path d="M58.2696 71.3756C58.0706 71.9409 58.2452 72.2201 58.7932 72.2201H62.0742C62.6257 72.2201 62.9957 71.9549 63.1841 71.4279L65.5123 64.8291H66.8037L64.4163 71.6024C63.9416 72.8342 63.0899 73.4519 61.8543 73.4519H58.1544C56.9223 73.4519 56.5244 72.8377 56.9572 71.6024L59.3516 64.8151H60.5838L58.2696 71.3721V71.3756Z" fill="#E26439"/>
<path d="M68.8596 69.4144L69.2889 68.2H72.7131C73.2785 68.221 73.652 67.9662 73.8405 67.4323L74.0464 66.8461C74.2314 66.3226 74.0604 66.0609 73.5298 66.0609H69.3902L66.7863 73.4449H65.5576L68.5978 64.8291H74.1407C75.3623 64.8396 75.7567 65.4572 75.3309 66.6821L75.0238 67.551C74.584 68.7968 73.7497 69.4179 72.5211 69.4249H70.6537L73.1005 73.4519H71.446L68.8596 69.4179V69.4144Z" fill="#E26439"/>
<path d="M86.469 70.9882H88.1304L88.7866 72.2201C89.2055 72.1957 89.5022 71.9444 89.6697 71.4628L91.2858 66.8775C91.4778 66.3331 91.2998 66.0609 90.7483 66.0574H87.4847C86.9227 66.0609 86.5458 66.3366 86.3503 66.8914L84.7587 71.4C84.5632 71.9514 84.7447 72.227 85.2997 72.227H86.3747L87.0309 73.4589H84.647C83.4148 73.4589 83.0134 72.8412 83.4497 71.6094L85.188 66.6786C85.6243 65.4468 86.4585 64.8291 87.6906 64.8291H91.3905C92.6261 64.8291 93.031 65.4398 92.5982 66.6611L90.8565 71.6024C90.4167 72.8377 89.579 73.4554 88.3468 73.4554H87.8826L86.4655 70.9847L86.469 70.9882Z" fill="#E26439"/>
<path d="M94.0188 71.3756C93.8198 71.9409 93.9944 72.2201 94.5424 72.2201H97.8234C98.3749 72.2201 98.7449 71.9549 98.9334 71.4279L101.261 64.8291H102.553L100.162 71.6024C99.6873 72.8342 98.8356 73.4519 97.6035 73.4519H93.9036C92.6715 73.4519 92.2736 72.8377 92.7064 71.6024L95.1008 64.8151H96.333L94.0188 71.3721V71.3756Z" fill="#E26439"/>
<path d="M100.714 73.4484L107.967 64.8535H108.902L110.054 73.4554H108.679L108.448 71.6094H104.591L105.576 70.4369H108.295L107.743 66.7728L102.124 73.4484H100.714Z" fill="#E26439"/>
<path d="M112.832 72.2201H118.379L117.946 73.4519H111.181L114.222 64.8291H115.436L112.832 72.2201Z" fill="#E26439"/>
<path d="M120.78 73.4519H119.558L122.602 64.8326H123.824L120.78 73.4519Z" fill="#E26439"/>
<path d="M132.955 64.8361L132.525 66.0574H129.496L126.885 73.4589H125.663L128.274 66.0574H125.185L125.621 64.8361H132.955Z" fill="#E26439"/>
<path d="M135.217 73.4589H133.988L135.412 69.4249L133.684 64.8256H135.168L136.442 68.2524L140.11 64.8256H141.639L136.637 69.4249L135.217 73.4589Z" fill="#E26439"/>
<path d="M140.997 73.4938L141.461 72.2515H140.075L139.611 73.4938H140.997Z" fill="#E26439"/>
<path d="M155.765 64.8256H159.465C160.7 64.8256 161.105 65.4363 160.672 66.6542L158.931 71.5955C158.491 72.8308 157.653 73.4519 156.421 73.4519H152.721C151.489 73.4519 151.088 72.8378 151.524 71.6024L153.262 66.6716C153.699 65.4398 154.533 64.8221 155.765 64.8221M154.404 66.9368L152.829 71.3965C152.637 71.9444 152.812 72.2201 153.356 72.2201H156.662C157.203 72.2201 157.566 71.9514 157.758 71.4105L159.353 66.8845C159.549 66.3331 159.371 66.0575 158.819 66.0575H155.545C154.994 66.0575 154.613 66.3506 154.407 66.9368" fill="#E26439"/>
<path d="M162.086 71.3756C161.887 71.9409 162.062 72.2201 162.61 72.2201H165.891C166.442 72.2201 166.812 71.9549 167.001 71.4279L169.329 64.8291H170.62L168.233 71.6024C167.758 72.8342 166.906 73.4519 165.674 73.4519H161.974C160.742 73.4519 160.344 72.8377 160.777 71.6024L163.168 64.8151H164.4L162.09 71.3721L162.086 71.3756Z" fill="#E26439"/>
<path d="M172.673 69.4144L173.102 68.2H176.523C177.088 68.221 177.462 67.9662 177.654 67.4323L177.859 66.8461C178.044 66.3226 177.873 66.0609 177.343 66.0609H173.203L170.599 73.4449H169.374L172.414 64.8291H177.957C179.179 64.8396 179.573 65.4572 179.147 66.6821L178.84 67.551C178.4 68.7968 177.566 69.4179 176.338 69.4249H174.47L176.917 73.4519H175.263L172.673 69.4179V69.4144Z" fill="#E26439"/>
<path d="M191.514 64.8256H195.214C196.453 64.8256 196.854 65.4363 196.422 66.6542L194.68 71.5955C194.24 72.8308 193.402 73.4519 192.17 73.4519H188.47C187.238 73.4519 186.84 72.8378 187.273 71.6024L189.011 66.6716C189.448 65.4398 190.282 64.8221 191.514 64.8221M190.153 66.9368L188.579 71.3965C188.387 71.9444 188.561 72.2201 189.106 72.2201H192.411C192.952 72.2201 193.315 71.9514 193.507 71.4105L195.102 66.8845C195.298 66.3331 195.12 66.0575 194.568 66.0575H191.294C190.743 66.0575 190.362 66.3506 190.156 66.9368" fill="#E26439"/>
<path d="M198.914 64.8256H204.46C205.591 64.9059 205.992 65.5236 205.664 66.6751L205.336 67.5894C205.116 68.2105 204.746 68.6223 204.226 68.8212C204.628 68.9608 204.722 69.3342 204.509 69.9344L203.926 71.6024C203.441 72.7575 202.603 73.3717 201.42 73.4519H195.87L198.914 64.8221V64.8256ZM202.855 68.2001C203.539 68.2175 203.992 67.9174 204.209 67.2893L204.317 66.9822C204.533 66.3645 204.338 66.0575 203.724 66.0575H199.713L197.539 72.2201H201.549C202.167 72.2096 202.582 71.9095 202.792 71.3093L203.169 70.2415C203.364 69.6832 203.099 69.4005 202.366 69.4005H199.224L199.65 68.1966H202.855V68.2001Z" fill="#E26439"/>
<path d="M205.2 73.4519L205.633 72.2201H210.869C211.438 72.2166 211.822 71.9339 212.014 71.3756L212.422 70.2136C212.617 69.6727 212.429 69.404 211.863 69.404H208.394C207.162 69.404 206.764 68.7793 207.204 67.5335L207.511 66.6786C207.944 65.4502 208.778 64.8326 210.014 64.8291H215.49L215.057 66.0609H209.759C209.221 66.0609 208.865 66.3157 208.684 66.8286L208.485 67.394C208.293 67.9348 208.46 68.2035 208.98 68.2035H212.516C213.752 68.2035 214.171 68.7758 213.766 69.9169L213.172 71.6024C212.733 72.8342 211.898 73.4554 210.663 73.4589H205.197L205.2 73.4519Z" fill="#E26439"/>
<path d="M216.031 72.2201H221.549L221.117 73.4519H214.377L217.42 64.8291H224.16L223.727 66.0574H218.209L216.035 72.2201H216.031ZM222.879 68.1896L222.45 69.404H217.706L218.136 68.1896H222.879Z" fill="#E26439"/>
<path d="M223.078 73.4519L223.511 72.2201H228.747C229.316 72.2166 229.7 71.9339 229.892 71.3756L230.3 70.2136C230.495 69.6727 230.307 69.404 229.742 69.404H226.272C225.04 69.404 224.642 68.7793 225.082 67.5335L225.389 66.6786C225.822 65.4502 226.659 64.8326 227.892 64.8291H233.368L232.932 66.0609H227.637C227.099 66.0609 226.743 66.3157 226.562 66.8286L226.363 67.394C226.174 67.9348 226.338 68.2035 226.858 68.2035H230.394C231.63 68.2035 232.049 68.7758 231.644 69.9169L231.05 71.6024C230.611 72.8342 229.776 73.4554 228.541 73.4589H223.075L223.078 73.4519Z" fill="#E26439"/>
<path d="M232.324 73.4519L232.757 72.2201H237.993C238.562 72.2166 238.946 71.9339 239.138 71.3756L239.546 70.2136C239.742 69.6727 239.553 69.404 238.988 69.404H235.518C234.286 69.404 233.888 68.7793 234.328 67.5335L234.635 66.6786C235.068 65.4502 235.902 64.8326 237.138 64.8291H242.618L242.185 66.0609H236.886C236.349 66.0609 235.993 66.3157 235.811 66.8286L235.612 67.394C235.42 67.9348 235.585 68.2035 236.105 68.2035H239.64C240.876 68.2035 241.295 68.7758 240.89 69.9169L240.297 71.6024C239.857 72.8342 239.019 73.4554 237.787 73.4589H232.321L232.324 73.4519Z" fill="#E26439"/>
<path d="M243.092 73.4519H241.871L244.911 64.8326H246.133L243.092 73.4519Z" fill="#E26439"/>
<path d="M250.08 64.8256H253.78C255.016 64.8256 255.421 65.4363 254.988 66.6542L253.246 71.5955C252.806 72.8308 251.969 73.4519 250.737 73.4519H247.037C245.805 73.4519 245.403 72.8378 245.839 71.6024L247.578 66.6716C248.014 65.4398 248.848 64.8221 250.08 64.8221M248.719 66.9368L247.145 71.3965C246.953 71.9444 247.127 72.2201 247.672 72.2201H250.977C251.518 72.2201 251.881 71.9514 252.073 71.4105L253.669 66.8845C253.864 66.3331 253.686 66.0575 253.135 66.0575H249.86C249.309 66.0575 248.929 66.3506 248.723 66.9368" fill="#E26439"/>
<path d="M261.32 71.4279L263.648 64.8256H264.876L261.833 73.4484H260.597L258.011 66.9159L255.703 73.4484H254.436L257.48 64.8256H258.646L261.32 71.4279Z" fill="#E26439"/>
<path d="M278.978 64.4277L278.727 65.1361H276.964L275.439 69.4528H274.726L276.248 65.1361H274.451L274.706 64.4277H278.978Z" fill="#E26439"/>
<path d="M280.364 69.4528L280.015 66.1586L278.852 69.4493H278.133L279.913 64.4208H280.629L281.058 68.6014L284.423 64.3894H285.135L283.355 69.4423H282.643L283.802 66.1586L281.149 69.4528H280.364Z" fill="#E26439"/>
</svg>
